<svg width="64" height="64" viewBox="0 0 64 64" xmlns="http://www.w3.org/2000/svg">
  <!-- Background (transparent) -->
  <rect width="64" height="64" fill="none"/>
  
  <!-- Empty Heart -->
  <!-- Dark Red Border/Shadow -->
  <path d="M16,16 h8 v-4 h16 v4 h8 v4 h4 v8 h-4 v8 h-4 v4 h-4 v4 h-16 v-4 h-4 v-4 h-4 v-8 h-4 v-8 h4 v-4 z" fill="#7a1f21"/>
  
  <!-- Medium Red Main Shape (outline only) -->
  <path d="M20,16 h8 v-4 h8 v4 h8 v4 h4 v8 h-4 v8 h-4 v4 h-4 v4 h-8 v-4 h-4 v-4 h-4 v-8 h-4 v-8 h4 v-4 z" fill="#c22326"/>
  
  <!-- Dark Medium Red Inner Fill (empty) -->
  <path d="M24,16 h16 v4 h4 v8 h-4 v8 h-4 v4 h-8 v-4 h-4 v-4 h-4 v-8 h-4 v-8 h4 v-4 z" fill="#8a2f31"/>
  
  <!-- Highlight Areas (Lighter Red) -->
  <path d="M24,16 h16 v4 h-16 z" fill="#aa3436"/>
</svg> 