<?xml version="1.0" encoding="UTF-8" standalone="no"?>
<svg width="32" height="32" viewBox="0 0 32 32" xmlns="http://www.w3.org/2000/svg">
  <!-- Bush tile with transparent background -->
  
  <!-- Remove base completely to ensure transparency -->
  
  <!-- Shadow beneath bush -->
  <ellipse cx="16" cy="28" rx="12" ry="3" fill="#000000" opacity="0.2"/>
  
  <!-- Bush base shape - multiple overlapping circles -->
  <g>
    <!-- Main base circles -->
    <circle cx="16" cy="16" r="12" fill="#2d7d1e"/>
    <circle cx="12" cy="18" r="8" fill="#2d7d1e"/>
    <circle cx="20" cy="17" r="9" fill="#2d7d1e"/>
    <circle cx="9" cy="14" r="6" fill="#2d7d1e"/>
    <circle cx="22" cy="13" r="7" fill="#2d7d1e"/>
    
    <!-- Inner layer - slightly lighter -->
    <circle cx="15" cy="15" r="9" fill="#3a9022"/>
    <circle cx="11" cy="17" r="6" fill="#3a9022"/>
    <circle cx="20" cy="16" r="7" fill="#3a9022"/>
    <circle cx="10" cy="14" r="4" fill="#3a9022"/>
    <circle cx="21" cy="13" r="5" fill="#3a9022"/>
    
    <!-- Highlights - even lighter spots -->
    <circle cx="14" cy="12" r="4" fill="#58b546" opacity="0.7"/>
    <circle cx="18" cy="14" r="3" fill="#58b546" opacity="0.7"/>
    <circle cx="11" cy="15" r="2" fill="#58b546" opacity="0.7"/>
    <circle cx="22" cy="15" r="2" fill="#58b546" opacity="0.7"/>
  </g>
  
  <!-- Bush details -->
  <g>
    <!-- Dark leaf details -->
    <g fill="#2d7d1e" opacity="0.6">
      <circle cx="16" cy="9" r="1.5"/>
      <circle cx="11" cy="10" r="1"/>
      <circle cx="21" cy="10" r="1.2"/>
      <circle cx="10" cy="18" r="1.5"/>
      <circle cx="23" cy="17" r="1.3"/>
      <circle cx="16" cy="20" r="1.5"/>
    </g>
    
    <!-- Small berries or flower details -->
    <g>
      <circle cx="13" cy="7" r="1" fill="#d22730" opacity="0.9"/>
      <circle cx="22" cy="11" r="0.7" fill="#d22730" opacity="0.9"/>
      <circle cx="8" cy="13" r="0.8" fill="#d22730" opacity="0.9"/>
      <circle cx="19" cy="19" r="0.7" fill="#d22730" opacity="0.9"/>
      <circle cx="15" cy="19" r="0.6" fill="#d22730" opacity="0.9"/>
    </g>
  </g>
  
  <!-- Bush top "bumps" to create leafy texture -->
  <g stroke="#2d7d1e" stroke-width="0.7" fill="none">
    <path d="M10,14 C11,12 12,13 13,11" opacity="0.7"/>
    <path d="M13,12 C14,10 15,11 16,9" opacity="0.7"/>
    <path d="M16,10 C17,8 18,9 19,8" opacity="0.7"/>
    <path d="M18,9 C19,7 20,8 21,7" opacity="0.7"/>
    <path d="M20,10 C21,8 22,9 23,8" opacity="0.7"/>
    <path d="M8,16 C9,14 10,15 11,14" opacity="0.7"/>
    <path d="M22,15 C23,13 24,14 25,13" opacity="0.7"/>
  </g>
</svg> 