<?xml version="1.0" encoding="UTF-8" standalone="no"?>
<svg width="32" height="32" viewBox="0 0 32 32" xmlns="http://www.w3.org/2000/svg">
  <!-- Base grass tile -->
  <rect width="32" height="32" fill="#58b546"/> <!-- Brighter base green color -->
  
  <!-- Grass texture pattern -->
  <g opacity="0.25">
    <rect x="0" y="0" width="32" height="32" fill="url(#grassPattern)"/>
  </g>
  
  <!-- Subtle grass variations -->
  <g fill="#6bc655" opacity="0.5">
    <path d="M2,3 L5,3 L5,6 L2,6 Z"/>
    <path d="M10,5 L14,5 L14,8 L10,8 Z"/>
    <path d="M22,2 L27,2 L27,6 L22,6 Z"/>
    <path d="M6,11 L10,11 L10,14 L6,14 Z"/>
    <path d="M18,13 L23,13 L23,17 L18,17 Z"/>
    <path d="M26,22 L29,22 L29,26 L26,26 Z"/>
    <path d="M9,24 L13,24 L13,28 L9,28 Z"/>
  </g>
  
  <!-- Darker grass patches -->
  <g fill="#419c32" opacity="0.3">
    <path d="M7,4 L9,4 L9,6 L7,6 Z"/>
    <path d="M16,8 L19,8 L19,10 L16,10 Z"/>
    <path d="M25,15 L28,15 L28,18 L25,18 Z"/>
    <path d="M3,19 L6,19 L6,22 L3,22 Z"/>
    <path d="M20,25 L23,25 L23,28 L20,28 Z"/>
  </g>
  
  <!-- Small flowers and details -->
  <g>
    <!-- White flowers -->
    <g fill="white">
      <circle cx="5" cy="9" r="1"/>
      <circle cx="5.5" cy="7.5" r="0.5"/>
      <circle cx="6.5" cy="8.5" r="0.5"/>
      <circle cx="4.5" cy="8.5" r="0.5"/>
      <circle cx="3.5" cy="7.5" r="0.5"/>
      
      <circle cx="24" cy="13" r="1"/>
      <circle cx="24.5" cy="11.5" r="0.5"/>
      <circle cx="25.5" cy="12.5" r="0.5"/>
      <circle cx="23.5" cy="12.5" r="0.5"/>
      <circle cx="22.5" cy="11.5" r="0.5"/>
      
      <circle cx="14" cy="26" r="1"/>
      <circle cx="14.5" cy="24.5" r="0.5"/>
      <circle cx="15.5" cy="25.5" r="0.5"/>
      <circle cx="13.5" cy="25.5" r="0.5"/>
      <circle cx="12.5" cy="24.5" r="0.5"/>
    </g>
    
    <!-- Yellow flower centers -->
    <g fill="#ffef00">
      <circle cx="5" cy="9" r="0.4"/>
      <circle cx="24" cy="13" r="0.4"/>
      <circle cx="14" cy="26" r="0.4"/>
    </g>
    
    <!-- Tiny grass tufts -->
    <g stroke="#419c32" stroke-width="0.5">
      <path d="M10,17 L10,15 M9,16 L11,16" opacity="0.7"/>
      <path d="M27,9 L27,7 M26,8 L28,8" opacity="0.7"/>
      <path d="M17,22 L17,20 M16,21 L18,21" opacity="0.7"/>
      <path d="M4,27 L4,25 M3,26 L5,26" opacity="0.7"/>
    </g>
  </g>
  
  <!-- Pattern definitions -->
  <defs>
    <pattern id="grassPattern" patternUnits="userSpaceOnUse" width="4" height="4" patternTransform="rotate(45)">
      <rect width="4" height="4" fill="#58b546"/>
      <rect width="1" height="1" fill="#4ca83a"/>
      <rect x="2" y="2" width="1" height="1" fill="#4ca83a"/>
    </pattern>
  </defs>
</svg> 