<?xml version="1.0" encoding="UTF-8" standalone="no"?>
<svg width="64" height="64" viewBox="0 0 64 64" xmlns="http://www.w3.org/2000/svg">
  <!-- Tree with transparent background (2x2 tile) -->
  
  <!-- Tree shadow -->
  <ellipse cx="32" cy="60" rx="24" ry="4" fill="#000000" opacity="0.25"/>
  
  <!-- Tree trunk -->
  <g>
    <!-- Main trunk -->
    <path d="M27,34 L27,58 L37,58 L37,34 Z" fill="#8d6239"/>
    
    <!-- Trunk details and highlights -->
    <path d="M27,34 L27,58 L30,58 L30,34 Z" fill="#a67c52" opacity="0.7"/>
    <path d="M30,48 L30,52 L37,52 L37,48 Z" fill="#7a522d" opacity="0.5"/>
    <path d="M30,38 L30,42 L37,42 L37,38 Z" fill="#7a522d" opacity="0.5"/>
    
    <!-- Trunk texture lines -->
    <g stroke="#7a522d" stroke-width="0.5" opacity="0.6" stroke-linecap="round">
      <path d="M29,36 L35,36"/>
      <path d="M29,40 L35,40"/>
      <path d="M29,44 L35,44"/>
      <path d="M29,50 L35,50"/>
      <path d="M29,54 L35,54"/>
      <path d="M34,38 L34,42"/>
      <path d="M32,46 L32,50"/>
      <path d="M30,36 L30,40"/>
    </g>
  </g>
  
  <!-- Tree foliage layers - from bottom to top -->
  <g>
    <!-- Bottom layer -->
    <ellipse cx="32" cy="34" rx="26" ry="12" fill="#2d7d1e"/>
    
    <!-- Middle layer -->
    <ellipse cx="32" cy="26" rx="22" ry="14" fill="#2d7d1e"/>
    
    <!-- Top layer -->
    <ellipse cx="32" cy="15" rx="16" ry="13" fill="#2d7d1e"/>
    
    <!-- Foliage detail layers - inner colors and texture -->
    <ellipse cx="32" cy="33" rx="22" ry="9" fill="#3a9022"/>
    <ellipse cx="32" cy="25" rx="18" ry="11" fill="#3a9022"/>
    <ellipse cx="32" cy="16" rx="12" ry="10" fill="#3a9022"/>
    
    <!-- Foliage highlights -->
    <ellipse cx="28" cy="30" rx="8" ry="5" fill="#58b546" opacity="0.7"/>
    <ellipse cx="25" cy="21" rx="7" ry="6" fill="#58b546" opacity="0.7"/>
    <ellipse cx="30" cy="12" rx="5" ry="5" fill="#58b546" opacity="0.7"/>
    
    <!-- Small foliage details (bumps and texture) -->
    <g>
      <circle cx="16" cy="28" r="3" fill="#2d7d1e"/>
      <circle cx="14" cy="33" r="4" fill="#2d7d1e"/>
      <circle cx="48" cy="30" r="4" fill="#2d7d1e"/>
      <circle cx="50" cy="34" r="3" fill="#2d7d1e"/>
      <circle cx="10" cy="24" r="2" fill="#2d7d1e"/>
      <circle cx="46" cy="20" r="3" fill="#2d7d1e"/>
      <circle cx="14" cy="17" r="3" fill="#2d7d1e"/>
      <circle cx="48" cy="15" r="2" fill="#2d7d1e"/>
      <circle cx="32" cy="6" r="4" fill="#2d7d1e"/>
      <circle cx="24" cy="8" r="3" fill="#2d7d1e"/>
      <circle cx="40" cy="8" r="3" fill="#2d7d1e"/>
    </g>
    
    <!-- Leaf details -->
    <g fill="#3a9022" opacity="0.5">
      <ellipse cx="18" cy="25" rx="2" ry="1.5"/>
      <ellipse cx="46" cy="26" rx="2" ry="1.5"/>
      <ellipse cx="12" cy="30" rx="2" ry="1.5"/>
      <ellipse cx="50" cy="31" rx="2" ry="1.5"/>
      <ellipse cx="20" cy="16" rx="2" ry="1.5"/>
      <ellipse cx="42" cy="17" rx="2" ry="1.5"/>
      <ellipse cx="30" cy="8" rx="2" ry="1.5"/>
      <ellipse cx="36" cy="7" rx="1.5" ry="1"/>
    </g>
  </g>
  
  <!-- Small details on leaves -->
  <g fill="#2d7d1e" opacity="0.5">
    <circle cx="32" cy="28" r="1.2"/>
    <circle cx="26" cy="25" r="1"/>
    <circle cx="38" cy="25" r="1"/>
    <circle cx="24" cy="18" r="1.2"/>
    <circle cx="40" cy="18" r="1.2"/>
    <circle cx="32" cy="12" r="1"/>
    <circle cx="27" cy="14" r="0.8"/>
    <circle cx="37" cy="14" r="0.8"/>
  </g>
</svg> 