<?xml version="1.0" encoding="UTF-8" standalone="no"?>
<svg width="32" height="32" viewBox="0 0 32 32" xmlns="http://www.w3.org/2000/svg">
  <!-- Water tile with transparent background -->
  
  <!-- Main water base -->
  <rect width="32" height="32" fill="#4a94ce" rx="1" ry="1"/>
  
  <!-- Water texture pattern -->
  <rect width="32" height="32" fill="url(#waterPattern)" opacity="0.3"/>
  
  <!-- Main wave patterns -->
  <g>
    <!-- Light wave highlights -->
    <g fill="#6eaee6" opacity="0.5">
      <path d="M0,6 Q4,4 8,6 Q12,8 16,6 Q20,4 24,6 Q28,8 32,6 L32,8 Q28,10 24,8 Q20,6 16,8 Q12,10 8,8 Q4,6 0,8 Z"/>
      <path d="M0,14 Q4,12 8,14 Q12,16 16,14 Q20,12 24,14 Q28,16 32,14 L32,16 Q28,18 24,16 Q20,14 16,16 Q12,18 8,16 Q4,14 0,16 Z"/>
      <path d="M0,22 Q4,20 8,22 Q12,24 16,22 Q20,20 24,22 Q28,24 32,22 L32,24 Q28,26 24,24 Q20,22 16,24 Q12,26 8,24 Q4,22 0,24 Z"/>
      <path d="M0,30 Q4,28 8,30 Q12,32 16,30 Q20,28 24,30 Q28,32 32,30 L32,32 Q28,34 24,32 Q20,30 16,32 Q12,34 8,32 Q4,30 0,32 Z"/>
    </g>
    
    <!-- Dark wave shadows -->
    <g fill="#3678ae" opacity="0.4">
      <path d="M0,4 Q4,2 8,4 Q12,6 16,4 Q20,2 24,4 Q28,6 32,4 L32,5 Q28,7 24,5 Q20,3 16,5 Q12,7 8,5 Q4,3 0,5 Z"/>
      <path d="M0,12 Q4,10 8,12 Q12,14 16,12 Q20,10 24,12 Q28,14 32,12 L32,13 Q28,15 24,13 Q20,11 16,13 Q12,15 8,13 Q4,11 0,13 Z"/>
      <path d="M0,20 Q4,18 8,20 Q12,22 16,20 Q20,18 24,20 Q28,22 32,20 L32,21 Q28,23 24,21 Q20,19 16,21 Q12,23 8,21 Q4,19 0,21 Z"/>
      <path d="M0,28 Q4,26 8,28 Q12,30 16,28 Q20,26 24,28 Q28,30 32,28 L32,29 Q28,31 24,29 Q20,27 16,29 Q12,31 8,29 Q4,27 0,29 Z"/>
    </g>
  </g>
  
  <!-- Sparkles and reflections -->
  <g>
    <!-- Light reflections -->
    <g fill="#a4d4ff" opacity="0.6">
      <circle cx="5" cy="5" r="0.7"/>
      <circle cx="23" cy="7" r="0.9"/>
      <circle cx="12" cy="13" r="0.8"/>
      <circle cx="28" cy="16" r="1"/>
      <circle cx="8" cy="21" r="0.7"/>
      <circle cx="17" cy="27" r="0.8"/>
      <circle cx="26" cy="25" r="0.6"/>
    </g>
    
    <!-- Sparkles -->
    <g fill="white" opacity="0.8">
      <circle cx="8" cy="4" r="0.3"/>
      <circle cx="19" cy="9" r="0.2"/>
      <circle cx="27" cy="5" r="0.3"/>
      <circle cx="4" cy="15" r="0.2"/>
      <circle cx="14" cy="17" r="0.3"/>
      <circle cx="24" cy="19" r="0.2"/>
      <circle cx="9" cy="25" r="0.3"/>
      <circle cx="21" cy="28" r="0.2"/>
      <circle cx="29" cy="27" r="0.3"/>
    </g>
  </g>
  
  <!-- Deeper water spots -->
  <g fill="#285a87" opacity="0.3">
    <ellipse cx="8" cy="8" rx="3" ry="2.5"/>
    <ellipse cx="24" cy="6" rx="4" ry="3"/>
    <ellipse cx="3" cy="20" rx="2" ry="2.5"/>
    <ellipse cx="19" cy="22" rx="5" ry="3.5"/>
    <ellipse cx="28" cy="26" rx="2.5" ry="2"/>
  </g>
  
  <!-- Pattern definitions -->
  <defs>
    <pattern id="waterPattern" patternUnits="userSpaceOnUse" width="10" height="10" patternTransform="rotate(15)">
      <rect width="10" height="10" fill="#4a94ce"/>
      <path d="M0,5 Q2.5,3 5,5 Q7.5,7 10,5" fill="none" stroke="#5ea1d7" stroke-width="0.5"/>
      <path d="M0,0 Q2.5,-2 5,0 Q7.5,2 10,0" fill="none" stroke="#5ea1d7" stroke-width="0.5" transform="translate(0,2.5)"/>
      <path d="M0,0 Q2.5,-2 5,0 Q7.5,2 10,0" fill="none" stroke="#3578ae" stroke-width="0.4" transform="translate(0,7.5)"/>
    </pattern>
  </defs>
</svg> 