<?xml version="1.0" encoding="UTF-8" standalone="no"?>
<svg width="64" height="64" viewBox="0 0 64 64" xmlns="http://www.w3.org/2000/svg">
  <!-- Pixel Art Knight - Frame 1 (Idle) -->
  <!-- Based on pixel art style similar to the reference image -->
  
  <!-- Outline -->
  <path d="M24,16 h16 v2 h4 v2 h2 v6 h-2 v2 h-2 v2 h-2 v4 h-2 v4 h-2 v2 h-2 v4 h-4 v-2 h-2 v-6 h-2 v-2 h-2 v-2 h-2 v-4 h-2 v-4 h2 v-2 h2 v-2 h2 z" fill="black"/>
  
  <!-- Hair/Helmet -->
  <path d="M26,18 h12 v2 h2 v2 h2 v2 h-2 v2 h-2 v2 h-2 v4 h-2 v-2 h-4 v2 h-2 v-4 h-2 v-2 h-2 v-2 h2 v-2 h2 z" fill="#F0C000"/>
  <path d="M26,18 h4 v2 h2 v2 h-2 v2 h-2 v-2 h-2 v-2 h-2 v-2 z" fill="#D09000"/>
  <path d="M40,22 h2 v2 h-2 z" fill="#D09000"/>
  
  <!-- Face -->
  <path d="M30,24 h4 v2 h-4 z" fill="#FFCC99"/>
  <path d="M30,24 h1 v1 h-1 z M33,24 h1 v1 h-1 z" fill="black"/>
  <path d="M31,26 h2 v1 h-2 z" fill="#CC6666"/>
  
  <!-- Armor/Body -->
  <path d="M30,28 h4 v4 h-4 z" fill="#CC3333"/>
  <path d="M28,32 h8 v4 h-2 v2 h-4 v-2 h-2 z" fill="#CC3333"/>
  <path d="M34,36 h2 v6 h-2 z" fill="#CC3333"/>
  <path d="M28,36 h2 v6 h-2 z" fill="#CC3333"/>
  
  <!-- Belt/Middle -->
  <path d="M28,36 h8 v2 h-8 z" fill="#FFCC00"/>
  
  <!-- Legs -->
  <path d="M28,42 h2 v4 h-2 z M34,42 h2 v4 h-2 z" fill="#666666"/>
  
  <!-- Boots -->
  <path d="M28,46 h2 v2 h-2 z M34,46 h2 v2 h-2 z" fill="#333333"/>
  
  <!-- Sword -->
  <path d="M42,22 h2 v2 h-2 v2 h-2 v2 h-2 v-2 h-2 v-2 h2 v-2 z" fill="#CCCCCC"/>
  <path d="M44,16 h2 v6 h-2 z" fill="#CCCCCC"/>
  <path d="M44,16 v6 h-2 v-6 z" fill="#999999"/>
  <path d="M46,12 h2 v4 h-2 z" fill="#CCCCCC"/>
  <path d="M46,12 v4 h-2 v-4 z" fill="#999999"/>
  
  <!-- Shield -->
  <path d="M22,24 h4 v6 h-2 v2 h-2 v-2 h-2 v-4 h2 z" fill="#CCCCCC"/>
  <path d="M24,26 h1 v2 h-1 z" fill="#999999"/>
</svg> 