<?xml version="1.0" encoding="UTF-8" standalone="no"?>
<svg width="64" height="64" viewBox="0 0 64 64" xmlns="http://www.w3.org/2000/svg">
  <!-- Pixel Art Slime - Slightly Squashed Animation Frame -->
  
  <!-- Background (transparent) -->
  <rect width="64" height="64" fill="none"/>
  
  <!-- Dark Green Outer Border/Shadow - Moderately Squashed -->
  <path d="M18,18 h4 v-4 h20 v4 h4 v8 h4 v6 h-4 v8 h-4 v4 h-24 v-4 h-4 v-8 h-4 v-6 h4 v-8 h4 z" fill="#2e6e3c"/>
  
  <!-- Medium Green Main Shape - Moderately Squashed -->
  <path d="M22,18 h20 v4 h4 v8 h4 v6 h-4 v8 h-4 v4 h-20 v-4 h-4 v-8 h-4 v-6 h4 v-8 h4 z" fill="#419c4f"/>
  
  <!-- Light Green Inner Fill - Moderately Squashed -->
  <path d="M26,22 h12 v4 h4 v4 h4 v6 h-4 v8 h-4 v4 h-12 v-4 h-4 v-8 h-4 v-6 h4 v-4 h4 z" fill="#6bc655"/>
  
  <!-- Highlight Areas (Lighter Green) -->
  <path d="M26,22 h12 v4 h-12 z" fill="#8cd673"/>
  <path d="M22,26 h4 v4 h-4 z" fill="#8cd673"/>
  <path d="M38,26 h4 v4 h-4 z" fill="#8cd673"/>
  
  <!-- Shadow Areas (Darker Green) -->
  <path d="M22,38 h4 v4 h-4 z" fill="#358241"/>
  <path d="M38,38 h4 v4 h-4 z" fill="#358241"/>
  <path d="M26,42 h12 v4 h-12 z" fill="#358241"/>
  
  <!-- Left Eye (Black) - Moderately Squashed -->
  <path d="M24,26 h4 v6 h-4 z" fill="#000000"/>
  
  <!-- Right Eye (Black) - Moderately Squashed -->
  <path d="M36,26 h4 v6 h-4 z" fill="#000000"/>
  
  <!-- Mouth (Dark Red) - Slightly Wider -->
  <path d="M27,34 h10 v4 h-10 z" fill="#7a1f21"/>
</svg> 