<?xml version="1.0" encoding="UTF-8" standalone="no"?>
<svg width="64" height="64" viewBox="0 0 64 64" xmlns="http://www.w3.org/2000/svg">
  <!-- Pixel Art Slime - Redesigned to match reference image more exactly -->
  
  <!-- Background (transparent) -->
  <rect width="64" height="64" fill="none"/>
  
  <!-- Dark Green Outer Border/Shadow -->
  <path d="M20,16 h4 v-4 h16 v4 h4 v8 h4 v8 h4 v8 h-4 v8 h-4 v4 h-24 v-4 h-4 v-8 h-4 v-8 h4 v-8 h4 z" fill="#2e6e3c"/>
  
  <!-- Medium Green Main Shape -->
  <path d="M24,16 h16 v4 h4 v8 h4 v8 h-4 v8 h-4 v4 h-16 v-4 h-4 v-8 h-4 v-8 h4 v-8 h4 z" fill="#419c4f"/>
  
  <!-- Light Green Inner Fill -->
  <path d="M28,20 h8 v4 h4 v4 h4 v8 h-4 v8 h-4 v4 h-8 v-4 h-4 v-8 h-4 v-8 h4 v-4 h4 z" fill="#6bc655"/>
  
  <!-- Highlight Areas (Lighter Green) -->
  <path d="M28,20 h8 v4 h-8 z" fill="#8cd673"/>
  <path d="M24,24 h4 v4 h-4 z" fill="#8cd673"/>
  <path d="M36,24 h4 v4 h-4 z" fill="#8cd673"/>
  
  <!-- Shadow Areas (Darker Green) -->
  <path d="M24,40 h4 v4 h-4 z" fill="#358241"/>
  <path d="M36,40 h4 v4 h-4 z" fill="#358241"/>
  <path d="M28,44 h8 v4 h-8 z" fill="#358241"/>
  
  <!-- Left Eye (Black) -->
  <path d="M24,28 h4 v8 h-4 z" fill="#000000"/>
  
  <!-- Right Eye (Black) -->
  <path d="M36,28 h4 v8 h-4 z" fill="#000000"/>
  
  <!-- Mouth (Dark Red) -->
  <path d="M28,36 h8 v4 h-8 z" fill="#7a1f21"/>
</svg> 